<?xml version="1.0" encoding="utf-8"?>
<!-- Generator: Adobe Illustrator 23.0.4, SVG Export Plug-In . SVG Version: 6.00 Build 0)  -->
<svg version="1.1" id="Layer_1" xmlns="http://www.w3.org/2000/svg" xmlns:xlink="http://www.w3.org/1999/xlink" x="0px" y="0px"
	 viewBox="0 0 216.94 54" style="enable-background:new 0 0 216.94 54;" xml:space="preserve">
<style type="text/css">
	.st0{fill:#FFFFFF;}
</style>
<g>
	<path class="st0" d="M1.06,52.59c3.01,0,15.05,2.72,14.84-0.15C12.06,0.3,18.21,34.24,35.33,52.4c0.78,0.83,15.25,0.97,15.25,0.08
		c0-3.9,1.18-51.84-0.32-51.98c-5.33-0.48-14.61-0.24-14.77,0.32c-0.78,2.72,0.65,24.94,0.16,27.77
		c-0.73,4.2-18.81-27.85-19.86-28.01c-1.92-0.3-12.6-0.53-15.25,0.32c0,9.94-0.48,21.08-0.48,30.99
		C0.05,36.44,1.06,52.59,1.06,52.59z"/>
</g>
<g>
	<g>
		<path class="st0" d="M111.44,52.86c-8.23-22.2-16.22-51.49-19.37-51.66c-14.12-0.72-16.78-1.17-17.35,0
			c-9.96,20.22-12.75,33.45-19.69,51.98c-0.24,0.65,15.78,0.21,16.38-0.32c2.26-2.02,1.8-7.95,2.74-8.23
			c2.66-0.81,16.63-1.13,17.92,0.16c0.46,0.46,1.78,6.3,2.66,7.91C95.12,53.41,111.71,53.61,111.44,52.86z M88.76,32.48
			c-0.59,0.74-4.68,0.7-5.32,0.58c-0.29-0.05-5.21,0.02-5.78-0.66c-0.01-0.01-0.16-0.68-0.16-0.69c0.92-3.97,4.93-16,5.77-16.06
			C85.45,15.49,89.08,32.08,88.76,32.48z"/>
	</g>
</g>
<g>
	<g>
		<path class="st0" d="M151.88,30.72c4.36-2.78,10.65-6.22,11.14-15.01c1.29-23.33-46.7-13.85-46.73-13.68
			c-0.4,2.46-0.56,15.21-0.24,51.21c0.01,0.97,16.59,0.97,16.59,0c0-12.64-0.35-20.59,0.36-20.94c0.18-0.09,2.6-0.3,3.41,0.34
			c7.77,6.21,12.09,20.84,13.6,20.97c4.81,0.38,7.53,0.77,17.55-0.18C167.87,53.39,158.99,33.39,151.88,30.72z M137.04,22.48
			c-1.34,0-4.41,0.34-4.41-0.11c0-1.65,0.09-5.06,0.09-6.78c0-1.73-0.66-3.37,1.04-3.71c0.2-0.04,3.29,0.08,4.8,0.08
			c2.87,0,8.56,0.82,8.56,3.71C147.12,20.98,146.74,22.48,137.04,22.48z"/>
	</g>
</g>
<g>
	<path class="st0" d="M203.58,31.79c-1.86-0.4,0.16,9.73-10.25,9.85c-9.82,0.11-10.84-8.26-10.84-14.94
		c0-7.16,2.57-14.27,10.9-14.17c9.83,0.13,7.39,6.52,8.98,6.43c6.69-0.39,9.67-1.59,14.12-2.42c1.29-0.24-5.59-17.79-24.54-16.47
		c-25.85,1.8-25.69,19-25.21,29.17C167.5,44.9,176.49,52.65,191,53.9c12.56,1.08,24.69-6.37,25.99-17.4
		C217.24,34.46,206.34,32.39,203.58,31.79z"/>
</g>
</svg>
